HIERARCHY
ROOT hip
{
	OFFSET 0.000000 0.000000 0.000000 
	CHANNELS 6 Xposition Yposition Zposition Xrotation Zrotation Yrotation
	JOINT abdomen
	{
		OFFSET 0.000000 3.402643 0.000000 
		CHANNELS 3 Xrotation Zrotation Yrotation
		JOINT chest
		{
			OFFSET 0.000000 8.438565 -0.680529 
			CHANNELS 3 Xrotation Zrotation Yrotation
			JOINT neck
			{
				OFFSET 0.000000 10.207942 -0.272212 
				CHANNELS 3 Xrotation Zrotation Yrotation
				JOINT head
				{
					OFFSET 0.000000 3.130431 0.000000 
					CHANNELS 3 Xrotation Zrotation Yrotation
					End Site
					{
						OFFSET 0.000000 3.130435 0.000000 
					}
				}
			}
			JOINT lCollar
			{
				OFFSET 3.470700 6.669187 -0.816635 
				CHANNELS 3 Yrotation Zrotation Xrotation
				JOINT lShldr
				{
					OFFSET 3.198488 0.000000 0.000000 
					CHANNELS 3 Zrotation Yrotation Xrotation
					JOINT lForeArm
					{
						OFFSET 10.139888 0.000000 0.000000 
						CHANNELS 3 Yrotation Zrotation Xrotation
						JOINT lHand
						{
							OFFSET 8.370511 0.000000 0.000000 
							CHANNELS 3 Zrotation Yrotation Xrotation
							End Site
							{
								OFFSET 4.083176 0.000000 0.000000 
							}
						}
					}
				}
			}
			JOINT rCollar
			{
				OFFSET -3.470700 6.669187 -0.816635 
				CHANNELS 3 Yrotation Zrotation Xrotation
				JOINT rShldr
				{
					OFFSET -3.198488 0.000000 0.000000 
					CHANNELS 3 Zrotation Yrotation Xrotation
					JOINT rForeArm
					{
						OFFSET -10.139888 0.000000 0.000000 
						CHANNELS 3 Yrotation Zrotation Xrotation
						JOINT rHand
						{
							OFFSET -8.370511 0.000000 0.000000 
							CHANNELS 3 Zrotation Yrotation Xrotation
							End Site
							{
								OFFSET -4.083176 0.000000 0.000000 
							}
						}
					}
				}
			}
		}
	}
	JOINT lThigh
	{
		OFFSET 5.308129 -1.633274 1.361059 
		CHANNELS 3 Xrotation Zrotation Yrotation
		JOINT lShin
		{
			OFFSET -2.041588 -20.007561 0.000000 
			CHANNELS 3 Xrotation Zrotation Yrotation
			JOINT lFoot
			{
				OFFSET 0.000000 -19.190928 -1.224953 
				CHANNELS 3 Xrotation Yrotation Zrotation
				End Site
				{
					OFFSET 0.000000 -2.449906 4.627600 
				}
			}
		}
	}
	JOINT rThigh
	{
		OFFSET -5.308129 -1.633274 1.361059 
		CHANNELS 3 Xrotation Zrotation Yrotation
		JOINT rShin
		{
			OFFSET 2.041588 -20.007561 0.000000 
			CHANNELS 3 Xrotation Zrotation Yrotation
			JOINT rFoot
			{
				OFFSET 0.000000 -19.190928 -1.224953 
				CHANNELS 3 Xrotation Yrotation Zrotation
				End Site
				{
					OFFSET 0.000000 -2.449906 4.627600 
				}
			}
		}
	}
}
MOTION
Frames: 15
Frame Time: 0.033333
1.296383 48.843128 1.784166 -5.458984 1.572266 3.711205 45.525005 -17.254059 1.263456 -28.730471 5.898438 -2.304688 51.063168 8.107644 2.471410 -71.162109 -5.654296 -5.020494 2.000000 -2.000000 0.000000 -87.041016 35.996094 -13.656367 -31.408197 -2.216383 -1.323742 33.571045 56.587059 34.574043 -2.000000 2.000000 0.000000 75.683594 -5.556641 12.499999 50.207424 2.103164 -2.064868 -34.723557 -45.252106 28.327356 -16.946453 0.829091 6.013591 20.383366 -5.510640 -1.930843 -5.407582 -2.586543 7.302024 42.438473 -2.549848 -16.762356 -6.508718 5.385375 -0.407010 11.138355 5.795584 -0.106248 
1.963147 49.993328 4.560681 -6.005859 1.904297 2.949543 45.474621 -17.358572 -0.026519 -27.656250 6.582032 -1.826172 51.063168 8.107644 2.471410 -71.347656 -5.791015 -5.996095 2.000000 -2.000000 0.000000 -86.464844 32.519527 -9.404296 -30.704866 -2.411932 -1.322052 29.409012 54.113880 30.536779 -2.000000 2.000000 0.000000 76.396484 -7.460937 13.182326 49.149979 1.891609 -1.959504 -34.565392 -45.256409 28.564445 -13.180711 0.009835 4.993961 20.916010 -5.481721 -1.992023 -5.952196 -0.564223 6.602158 33.746204 -7.735224 -22.309183 9.675401 5.206892 1.006172 36.256943 6.551927 -8.343395 
2.493409 50.213913 7.264154 -6.513672 2.246094 2.021484 45.794327 -16.923525 -1.576742 -27.109377 7.099609 -1.562500 51.063168 8.107644 2.471410 -71.005859 -5.839843 -5.683594 2.000000 -2.000000 0.000000 -86.845703 28.964844 -5.263672 -30.181831 -2.429159 -1.115267 26.666132 51.951748 27.740589 -2.000000 2.000000 0.000000 76.777344 -9.658203 14.726564 47.212887 1.786149 -1.828754 -33.541664 -46.365429 28.889013 -9.511732 -0.966919 4.084627 21.090895 -5.468923 -2.005379 -7.259972 1.091589 5.705487 46.228470 -4.464136 -25.519453 -14.271884 5.287031 -1.089572 60.277950 5.603221 -12.879659 
2.845423 50.804779 9.695781 -7.060547 2.607422 1.416016 46.421898 -15.533320 -3.402130 -27.636719 7.460938 -1.269503 51.063168 8.107644 2.471410 -70.087891 -5.634765 -3.252912 2.000000 -2.000000 0.000000 -87.509766 25.742189 -1.909820 -30.358206 -2.499119 -1.140490 24.924032 49.627865 26.021944 -2.000000 2.000000 0.000000 76.943359 -10.878907 17.158203 45.981049 1.812547 -1.778320 -31.749264 -47.919609 29.682528 -6.227568 -1.483660 4.125641 20.897734 -5.099143 -2.218813 -7.132005 1.795085 5.335190 36.462269 -8.018018 -24.755577 -1.245264 5.331472 0.091573 63.767860 2.904749 -13.950941 
3.049595 52.096786 12.251239 -7.216797 2.607422 1.591797 47.349194 -13.699136 -5.266729 -28.164063 7.988281 -0.966796 51.063168 8.107644 2.471410 -68.642578 -5.458984 0.371094 2.000000 -2.000000 0.000000 -87.685547 22.724611 2.064321 -30.895803 -2.510013 -1.159407 23.106833 48.116951 23.626728 -2.000000 2.000000 0.000000 77.148445 -11.708984 20.378878 45.101585 1.830906 -1.757692 -30.412275 -49.852268 30.961073 -3.042540 -1.540941 3.489331 21.628862 -5.501309 -2.029080 -9.918016 1.806271 5.329031 21.181885 -11.628949 -21.062647 19.679184 4.349794 1.718816 51.130245 3.567088 -12.534505 
3.144113 51.758026 14.802694 -7.402343 2.607422 2.119585 48.078465 -11.879957 -7.097675 -29.042969 8.369142 -0.740766 51.063168 8.107644 2.471410 -67.353516 -5.097656 3.426867 2.000000 -2.000000 0.000000 -84.628906 19.658203 8.274770 -32.656227 -2.496239 -1.258008 22.805204 48.275932 22.287617 -2.000000 2.000000 0.000000 77.500000 -13.789063 21.230469 44.573441 1.838945 -1.727887 -29.144690 -51.241020 31.270536 0.214376 -1.629784 3.878867 21.280046 -5.528530 -1.974338 -11.920565 0.687384 5.727935 5.336262 -13.908216 -15.207931 40.647732 3.443383 3.224450 31.741299 4.891882 -8.671623 
3.182243 51.356243 17.430288 -7.402343 2.773438 2.793441 48.942760 -9.840686 -8.938167 -29.365234 9.599609 0.978191 51.063168 8.107644 2.471410 -66.083984 -4.726562 5.292969 2.000000 -2.000000 0.000000 -79.951172 16.123047 15.471463 -35.638477 -2.455501 -1.397728 23.428156 49.580727 20.923658 -2.000000 2.000000 0.000000 78.876953 -17.539064 17.939455 44.397362 1.857872 -1.717004 -29.434874 -51.269310 31.138126 3.843835 -1.463116 3.590267 20.227283 -5.626395 -1.750753 -13.644747 -0.434714 5.855309 -6.464282 -14.176570 -11.675372 53.090866 2.929532 4.047673 15.969329 4.621476 -6.305128 
3.174129 51.411392 20.224867 -7.402343 2.773438 3.857894 49.594788 -8.125546 -10.568406 -29.365234 9.599609 0.978191 51.063168 8.107644 2.471410 -64.921875 -4.003906 6.748047 2.000000 -2.000000 0.000000 -77.167969 11.904297 19.023438 -38.453819 -2.246167 -1.498016 23.957920 50.043247 20.558334 -2.000000 2.000000 0.000000 81.806641 -21.914061 11.953125 44.573662 1.859013 -1.736495 -30.410837 -50.595291 31.080194 7.655303 -0.839265 4.025650 19.034239 -5.586346 -1.774820 -14.320399 -2.564599 6.318616 -10.904793 -12.981951 -12.293147 49.055462 3.222262 3.681442 6.400804 3.299382 -5.800435 
3.205420 51.308971 23.314407 -7.216797 2.607422 4.931641 50.203018 -6.784602 -11.848043 -29.365234 9.599609 0.978191 51.063168 8.107644 2.471410 -64.160164 -3.378906 7.587891 2.000000 -2.000000 0.000000 -76.230469 7.207031 19.570313 -40.908478 -2.204843 -1.627941 24.358505 49.760067 20.527267 -2.000000 2.000000 0.000000 84.003906 -25.546875 6.812197 44.750664 2.037914 -1.784734 -30.908676 -50.200237 31.005964 12.429743 -0.399887 4.144998 16.201651 -5.653642 -1.523434 -15.502271 -3.902556 6.538380 -10.777148 -11.047179 -15.578244 34.832134 4.150186 2.810628 -2.032522 2.494534 -7.112369 
3.189856 51.009605 26.523487 -7.216797 2.607422 5.996094 50.635441 -6.553452 -12.896665 -29.365234 9.599609 0.978191 51.063168 8.107644 2.471410 -63.925781 -2.880859 7.988281 2.000000 -2.000000 0.000000 -75.234375 1.474609 18.896484 -43.372150 -2.152052 -1.728816 24.556694 48.572777 21.025848 -2.000000 2.000000 0.000000 84.580078 -28.408205 4.072267 44.749683 1.869332 -1.745672 -30.933439 -51.051685 31.694454 17.354971 0.371887 3.429743 13.020910 -5.780705 -0.942915 -16.132410 -4.864126 6.454239 -10.933234 -9.250984 -17.406046 23.014156 4.804144 1.459733 -7.331259 3.267053 -8.067800 
3.149377 50.347847 29.862862 -7.216797 2.255860 7.070312 51.063190 -6.888363 -13.597751 -29.365234 9.599609 0.978191 51.063168 8.107644 2.471410 -64.697266 -3.330078 7.812501 2.000000 -2.000000 0.000000 -74.433601 -4.179688 17.675781 -45.836102 -2.099826 -1.839437 24.847830 47.485634 21.327005 -2.000000 2.000000 0.000000 84.335938 -30.380859 1.987250 44.925484 1.859583 -1.746240 -30.380169 -52.012108 32.491993 22.893270 1.572561 3.090027 9.661049 -5.828129 -0.666592 -17.938242 -6.154142 6.287620 -13.062816 -8.706343 -18.186401 17.545101 4.910818 1.502564 -7.985827 4.012489 -8.303622 
3.076095 49.859402 32.333542 -7.216797 1.914063 8.193685 51.276207 -7.393556 -13.725341 -29.365234 9.599609 0.978191 51.063168 8.107644 2.471410 -66.220703 -4.531250 7.363281 2.000000 -2.000000 0.000000 -73.105469 -8.740234 15.613751 -48.475670 -1.998280 -1.943164 24.806040 46.399830 21.654135 -2.000000 2.000000 0.000000 84.238281 -31.464840 0.771484 44.573627 1.878511 -1.735358 -30.327000 -52.323357 32.770393 24.296040 2.793152 3.033807 13.909008 -5.692590 -1.334361 -17.577488 -5.741093 7.046009 -15.328850 -8.561053 -17.351271 13.491963 5.076826 0.661344 -5.747899 4.639301 -7.674394 
2.988380 49.426109 34.429310 -7.216797 1.562500 8.760032 51.067837 -7.088975 -13.591086 -29.365234 9.599609 0.978191 51.063168 8.107644 2.471410 -67.216797 -5.439452 7.382812 2.000000 -2.000000 0.000000 -72.509766 -12.167969 13.447266 -50.236855 -2.162227 -2.070844 24.203297 45.407501 20.678007 -2.000000 2.000000 0.000000 84.521484 -31.142576 -0.014815 44.397587 1.877940 -1.725612 -30.994883 -52.725765 33.664486 24.741266 4.228467 2.688142 19.213747 -5.558884 -1.825140 -14.715961 -5.220922 7.637164 -17.543379 -8.266609 -17.265995 10.660475 5.086096 0.923909 -3.999389 4.682489 -7.471360 
3.045614 48.929794 36.527374 -7.578125 0.507813 9.228587 50.053490 -5.137068 -12.698163 -29.365234 9.599609 0.978191 51.063168 8.107644 2.471410 -67.333984 -6.455077 7.871095 2.000000 -2.000000 0.000000 -72.978516 -12.783204 10.154088 -52.513584 -1.900707 -2.115432 23.216524 43.839714 18.618889 -2.000000 2.000000 0.000000 84.111328 -31.347654 -0.253906 44.051388 1.985801 -1.562522 -32.394455 -52.683201 34.810402 26.672409 5.438976 2.491367 21.856112 -5.441411 -2.000563 -10.460928 -4.626921 8.266047 -18.968086 -7.631705 -16.183376 10.131467 5.173074 0.370077 -6.016657 4.819531 -6.790328 
3.567708 48.236519 39.167583 -7.929687 -1.064453 9.257630 48.585564 -2.030262 -11.382689 -29.365234 9.599609 0.978191 51.063168 8.107644 2.471410 -66.962898 -7.695312 8.505859 2.000000 -2.000000 0.000000 -74.287109 -10.498047 6.054687 -54.084877 -1.546330 -2.077431 21.025490 42.256298 14.939015 -2.000000 2.000000 0.000000 83.066406 -31.347654 -0.126953 43.869701 1.886549 -1.705553 -33.030071 -52.821812 35.329552 32.509571 6.503561 3.344783 17.257004 -5.159022 -1.667965 -5.970535 -1.314791 11.151305 -20.867069 -6.942129 -15.825451 20.555765 4.833523 1.864858 -7.190133 2.808309 -6.733434 
